<svg xmlns="http://www.w3.org/2000/svg" viewBox="0 0 100 100" role="img" aria-labelledby="title desc" color="#171411">
  <title id="title">Mnemosyne Codex Seal</title>
  <desc id="desc">A double-ring codex seal with an open book and muse star.</desc>
  <circle cx="50" cy="50" r="45" fill="none" stroke="currentColor" stroke-width="3"/>
  <circle cx="50" cy="50" r="39.5" fill="none" stroke="currentColor" stroke-width="1.3"/>
  <g fill="none" stroke="currentColor" stroke-linecap="round" stroke-linejoin="round">
    <path d="M50 50 C43 46 33 45 26 47 L26 67 C33 65 43 66 50 70" stroke-width="2.8"/>
    <path d="M50 50 C57 46 67 45 74 47 L74 67 C67 65 57 66 50 70" stroke-width="2.8"/>
    <line x1="50" y1="50" x2="50" y2="70" stroke-width="2.8"/>
    <path d="M45 52 C39 49 33 49 29 50" stroke-width="1.1"/>
    <path d="M55 52 C61 49 67 49 71 50" stroke-width="1.1"/>
    <path d="M45 56 C39 53 33 53 29 54" stroke-width="1.1"/>
    <path d="M55 56 C61 53 67 53 71 54" stroke-width="1.1"/>
  </g>
  <path d="M50 22 L52 28.5 L58.5 30.5 L52 32.5 L50 39 L48 32.5 L41.5 30.5 L48 28.5 Z" fill="currentColor"/>
</svg>
